# xmcd
#
# Track frame offsets:
#	150
#	12707
#	23272
#	32785
#	44755
#	55667
#	67707
#	80820
#	90857
#
# Disc length: 1372 seconds
#
# Revision: 2
# Processed by: cddbd v1.5.1PL0 Copyright (c) Steve Scherf et al.
# Submitted via: audiograbber 1.83.01
#
DISCID=64055a09
DTITLE=Various Artist - Classic Country - Country Gold 2
DYEAR=1900
DGENRE=Country
TTITLE0=Freddy Fender - Wasted Days And Wasted Nights
TTITLE1=Johnny Paycheck - Jukebox Charlie
TTITLE2=Mickey Gilley - Susie Q
TTITLE3=Donna Fargo - The Happiest Girl In The Whole USA
TTITLE4=Waylon Jennings - Sally Was A Good Old Girl
TTITLE5=Billie Jo Spears - Look What They've Done To My Song
TTITLE6=Frankie Laine - Moonlight Gambler
TTITLE7=Barbara Mandrell - Please Release Me
TTITLE8=Dolly Parton - Letter To Heaven
EXTD=
EXTT0=
EXTT1=
EXTT2=
EXTT3=
EXTT4=
EXTT5=
EXTT6=
EXTT7=
EXTT8=
PLAYORDER=
